<svg width="99" height="99" viewBox="0 0 99 99" fill="none" xmlns="http://www.w3.org/2000/svg">
<g clip-path="url(#clip0)">
<path d="M5.64402 28.1368L11.0621 48.3575C11.7506 50.9282 13.4319 53.1203 15.7362 54.4517L63.1096 81.8055C64.2622 82.4707 65.6318 82.6509 66.9172 82.3064C68.2025 81.962 69.2985 81.1212 69.9641 79.9688L86.2373 51.7781C86.9025 50.6255 87.0827 49.2559 86.7383 47.9706C86.3938 46.6852 85.553 45.5892 84.4006 44.9236L37.0281 17.5731C34.7229 16.2432 31.9839 15.8832 29.4134 16.5723L9.19266 21.9904C7.90701 22.3349 6.81087 23.176 6.14537 24.3287C5.47987 25.4813 5.29953 26.8512 5.64402 28.1368Z" fill="white" stroke="url(#paint0_linear)" stroke-width="1.52462" stroke-linecap="round" stroke-linejoin="round"/>
<g filter="url(#filter0_i)">
<path d="M25.6123 40.1993C28.8131 39.3417 30.7126 36.0517 29.855 32.8509C28.9973 29.6501 25.7073 27.7506 22.5065 28.6082C19.3057 29.4659 17.4062 32.7559 18.2639 35.9567C19.1215 39.1575 22.4115 41.057 25.6123 40.1993Z" fill="url(#paint1_linear)"/>
</g>
<path d="M44.3869 41.3942C44.2769 41.5847 44.1194 41.7074 43.9145 41.7623C43.7096 41.8172 43.5162 41.7922 43.3344 41.6872L39.5152 39.4822L38.2402 41.6905L41.9684 43.843C42.1503 43.948 42.2662 44.1073 42.3161 44.3209C42.371 44.5258 42.3435 44.7235 42.2335 44.914C42.1235 45.1045 41.966 45.2273 41.7611 45.2822C41.5562 45.3371 41.3628 45.312 41.1809 45.207L37.4527 43.0545L35.6977 46.0943C35.5727 46.3108 35.3898 46.4476 35.1489 46.5049C34.9167 46.5671 34.688 46.5332 34.4628 46.4032C34.2549 46.2832 34.1199 46.1071 34.0577 45.8749C33.9955 45.6426 34.0268 45.4183 34.1518 45.2018L38.2168 38.161C38.3668 37.9012 38.5853 37.7328 38.8721 37.656C39.159 37.5791 39.4323 37.6157 39.6922 37.7657L44.1219 40.3232C44.3037 40.4282 44.4196 40.5875 44.4695 40.801C44.5244 41.0059 44.4969 41.2036 44.3869 41.3942ZM51.5757 48.2639C51.3557 48.645 51.1019 48.9546 50.8143 49.1927C50.5317 49.4221 50.2308 49.5833 49.9116 49.6761C49.6011 49.774 49.2871 49.8178 48.9696 49.8077C48.6521 49.7976 48.3553 49.7417 48.0792 49.64L48.1711 52.8108C48.1704 52.972 48.1325 53.1176 48.0575 53.2475C47.9525 53.4294 47.7832 53.5626 47.5497 53.6471C47.3211 53.723 47.0899 53.6935 46.8561 53.5585C46.7262 53.4835 46.6181 53.3807 46.5319 53.25C46.4593 53.1158 46.4233 52.968 46.4241 52.8067L46.3838 48.8864L44.89 48.0239L43.4275 50.557C43.3025 50.7735 43.1195 50.9104 42.8786 50.9676C42.6464 51.0299 42.4177 50.996 42.1925 50.866C41.9847 50.746 41.8497 50.5699 41.7874 50.3376C41.7252 50.1054 41.7566 49.881 41.8816 49.6645L45.9466 42.6237C46.0966 42.3639 46.315 42.1956 46.6019 42.1187C46.8888 42.0419 47.1621 42.0784 47.4219 42.2284L50.3188 43.9009C50.7431 44.1459 51.091 44.4334 51.3624 44.7633C51.6425 45.0982 51.8313 45.4612 51.9287 45.8524C52.0399 46.2399 52.0629 46.64 51.9978 47.0527C51.9464 47.4618 51.8057 47.8656 51.5757 48.2639ZM49.3104 45.1374L47.245 43.9449L45.6775 46.6599L47.7429 47.8524C48.1673 48.0974 48.588 48.1787 49.0051 48.0962C49.4273 48.005 49.7558 47.756 49.9908 47.3489C50.2308 46.9332 50.2823 46.5241 50.1451 46.1217C50.013 45.7105 49.7348 45.3824 49.3104 45.1374ZM56.509 58.0924C56.394 58.2916 56.2316 58.4229 56.0217 58.4865C55.8168 58.5414 55.6234 58.5163 55.4415 58.4113L51.0118 55.8538C50.752 55.7038 50.5837 55.4854 50.5068 55.1985C50.4299 54.9117 50.4665 54.6383 50.6165 54.3785L54.539 47.5846C54.689 47.3248 54.9074 47.1564 55.1943 47.0796C55.4812 47.0027 55.7545 47.0393 56.0143 47.1893L60.444 49.7468C60.6259 49.8518 60.7418 50.011 60.7917 50.2246C60.8466 50.4295 60.819 50.6272 60.709 50.8178C60.599 51.0083 60.4416 51.131 60.2367 51.1859C60.0318 51.2408 59.8384 51.2158 59.6565 51.1108L55.8373 48.9058L54.5623 51.1141L58.2906 53.2666C58.4724 53.3716 58.5883 53.5309 58.6382 53.7445C58.6931 53.9494 58.6656 54.1471 58.5556 54.3376C58.4456 54.5281 58.2881 54.6508 58.0832 54.7058C57.8783 54.7607 57.6849 54.7356 57.5031 54.6306L53.7748 52.4781L52.4098 54.8424L56.229 57.0474C56.4109 57.1524 56.5293 57.3073 56.5842 57.5122C56.6391 57.7171 56.614 57.9105 56.509 58.0924ZM64.4291 62.665C64.3141 62.8642 64.1516 62.9956 63.9417 63.0591C63.7368 63.114 63.5434 63.089 63.3616 62.984L58.9318 60.4265C58.672 60.2765 58.5037 60.058 58.4268 59.7712C58.35 59.4843 58.3865 59.211 58.5365 58.9512L62.459 52.1572C62.609 51.8974 62.8275 51.7291 63.1143 51.6522C63.4012 51.5753 63.6745 51.6119 63.9343 51.7619L68.3641 54.3194C68.5459 54.4244 68.6618 54.5837 68.7117 54.7972C68.7666 55.0021 68.7391 55.1999 68.6291 55.3904C68.5191 55.5809 68.3616 55.7036 68.1567 55.7585C67.9518 55.8134 67.7584 55.7884 67.5766 55.6834L63.7574 53.4784L62.4824 55.6868L66.2106 57.8393C66.3925 57.9443 66.5084 58.1035 66.5583 58.3171C66.6132 58.522 66.5856 58.7197 66.4756 58.9102C66.3656 59.1008 66.2082 59.2235 66.0033 59.2784C65.7984 59.3333 65.605 59.3082 65.4231 59.2032L61.6949 57.0507L60.3299 59.415L64.1491 61.62C64.3309 61.725 64.4493 61.8799 64.5042 62.0848C64.5591 62.2898 64.5341 62.4831 64.4291 62.665Z" fill="#475B6F"/>
</g>
<defs>
<filter id="filter0_i" x="16.7109" y="27.0553" width="14.6969" height="18.6969" filterUnits="userSpaceOnUse" color-interpolation-filters="sRGB">
<feFlood flood-opacity="0" result="BackgroundImageFix"/>
<feBlend mode="normal" in="SourceGraphic" in2="BackgroundImageFix" result="shape"/>
<feColorMatrix in="SourceAlpha" type="matrix" values="0 0 0 0 0 0 0 0 0 0 0 0 0 0 0 0 0 0 127 0" result="hardAlpha"/>
<feOffset dy="4"/>
<feGaussianBlur stdDeviation="2"/>
<feComposite in2="hardAlpha" operator="arithmetic" k2="-1" k3="1"/>
<feColorMatrix type="matrix" values="0 0 0 0 0 0 0 0 0 0 0 0 0 0 0 0 0 0 0.24 0"/>
<feBlend mode="normal" in2="shape" result="effect1_innerShadow"/>
</filter>
<linearGradient id="paint0_linear" x1="49.6563" y1="-44.1104" x2="-0.662051" y2="47.2409" gradientUnits="userSpaceOnUse">
<stop offset="0.159397" stop-color="#FACCA9"/>
<stop offset="0.801936" stop-color="#FFAE70"/>
</linearGradient>
<linearGradient id="paint1_linear" x1="24.1393" y1="19.112" x2="15.8907" y2="34.088" gradientUnits="userSpaceOnUse">
<stop offset="0.159397" stop-color="#FACCA9"/>
<stop offset="0.801936" stop-color="#FFAE70"/>
</linearGradient>
<clipPath id="clip0">
<rect width="80.2966" height="80.2966" fill="white" transform="translate(0 20.7822) rotate(-15)"/>
</clipPath>
</defs>
</svg>
