<svg width="94" height="94" viewBox="0 0 94 94" fill="none" xmlns="http://www.w3.org/2000/svg">
<g clip-path="url(#clip0)">
<path d="M87.5437 58.5407L79.8126 42.0239C78.83 39.924 77.0537 38.3004 74.8742 37.5099L30.0703 21.274C28.9803 20.8793 27.7782 20.9336 26.7282 21.4251C25.6783 21.9165 24.8665 22.8048 24.4715 23.8947L14.8136 50.5557C14.4189 51.6457 14.4732 52.8479 14.9647 53.8978C15.4561 54.9478 16.3445 55.7595 17.4343 56.1546L62.237 72.3878C64.4169 73.1769 66.8211 73.0679 68.9207 72.0848L85.4375 64.3537C86.4876 63.8621 87.2995 62.9736 87.6945 61.8834C88.0895 60.7933 88.0353 59.5909 87.5437 58.5407Z" fill="white"/>
<g filter="url(#filter0_i)">
<path d="M68.5769 51.2402C65.9624 52.464 64.835 55.5755 66.0588 58.19C67.2826 60.8045 70.3941 61.9319 73.0086 60.7081C75.6231 59.4843 76.7505 56.3728 75.5267 53.7583C74.3029 51.1438 71.1914 50.0164 68.5769 51.2402Z" fill="url(#paint0_linear)"/>
</g>
<path d="M35.9024 39.7652C35.8371 39.9454 35.7208 40.0746 35.5534 40.153C35.386 40.2313 35.2163 40.2393 35.0443 40.177L31.4324 38.8683L30.6756 40.9569L34.2016 42.2344C34.3736 42.2967 34.4973 42.4157 34.5727 42.5912C34.651 42.7586 34.6575 42.9324 34.5922 43.1126C34.527 43.2928 34.4106 43.422 34.2433 43.5004C34.0759 43.5787 33.9062 43.5867 33.7342 43.5244L30.2082 42.2469L29.1666 45.1217C29.0924 45.3265 28.9564 45.4717 28.7585 45.5576C28.5688 45.6464 28.3675 45.6522 28.1545 45.575C27.9579 45.5038 27.8153 45.3733 27.7265 45.1836C27.6377 44.994 27.6304 44.7967 27.7046 44.592L30.1173 37.9331C30.2063 37.6874 30.368 37.5097 30.6023 37.4001C30.8366 37.2904 31.0766 37.2801 31.3223 37.3691L35.5117 38.887C35.6837 38.9493 35.8074 39.0683 35.8828 39.2438C35.9611 39.4112 35.9677 39.585 35.9024 39.7652ZM43.1159 44.5609C42.9853 44.9213 42.8149 45.2255 42.6045 45.4736C42.3972 45.7135 42.1637 45.8976 41.9041 46.0259C41.6527 46.1572 41.39 46.2427 41.1162 46.2825C40.8423 46.3223 40.5792 46.3196 40.3269 46.2745L40.8893 48.98C40.9133 49.1184 40.903 49.249 40.8585 49.3719C40.7962 49.5439 40.6713 49.684 40.4839 49.7921C40.2994 49.8921 40.0966 49.902 39.8755 49.8218C39.7526 49.7773 39.6443 49.7056 39.5504 49.6067C39.4676 49.5026 39.4143 49.3814 39.3903 49.243L38.7579 45.8867L37.345 45.3748L36.477 47.7705C36.4028 47.9752 36.2668 48.1205 36.0689 48.2063C35.8792 48.2951 35.6779 48.3009 35.4649 48.2238C35.2684 48.1526 35.1257 48.0221 35.0369 47.8324C34.9481 47.6427 34.9408 47.4455 35.015 47.2407L37.4277 40.5819C37.5167 40.3362 37.6784 40.1585 37.9127 40.0488C38.147 39.9391 38.387 39.9288 38.6327 40.0178L41.3724 41.0105C41.7738 41.1559 42.116 41.3494 42.3991 41.591C42.6904 41.8355 42.9077 42.1181 43.0509 42.4387C43.2054 42.7541 43.2861 43.0938 43.2933 43.4577C43.3115 43.8164 43.2524 44.1842 43.1159 44.5609ZM40.6962 42.2248L38.7428 41.5171L37.8124 44.0848L39.7658 44.7925C40.1672 44.938 40.5404 44.9435 40.8856 44.8091C41.2338 44.6665 41.4776 44.4028 41.6171 44.0178C41.7595 43.6247 41.7412 43.266 41.5622 42.9417C41.3862 42.6092 41.0975 42.3702 40.6962 42.2248ZM48.8463 52.2383C48.778 52.4267 48.6587 52.5641 48.4884 52.6507C48.321 52.729 48.1513 52.737 47.9793 52.6747L43.7899 51.1567C43.5442 51.0677 43.3665 50.906 43.2568 50.6717C43.1471 50.4374 43.1368 50.1974 43.2258 49.9517L45.5539 43.5263C45.643 43.2806 45.8046 43.1029 46.039 42.9932C46.2733 42.8835 46.5133 42.8732 46.759 42.9622L50.9484 44.4802C51.1204 44.5425 51.2441 44.6614 51.3195 44.837C51.3978 45.0043 51.4043 45.1781 51.3391 45.3583C51.2738 45.5385 51.1574 45.6678 50.9901 45.7461C50.8227 45.8245 50.653 45.8325 50.481 45.7701L46.869 44.4614L46.1123 46.55L49.6383 47.8275C49.8103 47.8899 49.934 48.0088 50.0093 48.1844C50.0877 48.3517 50.0942 48.5255 50.0289 48.7057C49.9636 48.8859 49.8473 49.0152 49.6799 49.0935C49.5126 49.1719 49.3429 49.1799 49.1709 49.1175L45.6449 47.84L44.8347 50.076L48.4467 51.3847C48.6187 51.447 48.7439 51.5619 48.8222 51.7292C48.9006 51.8966 48.9086 52.0663 48.8463 52.2383ZM56.3366 54.9523C56.2684 55.1406 56.1491 55.2781 55.9787 55.3646C55.8114 55.443 55.6417 55.451 55.4697 55.3887L51.2803 53.8707C51.0346 53.7817 50.8569 53.62 50.7472 53.3857C50.6375 53.1514 50.6272 52.9114 50.7162 52.6656L53.0443 46.2402C53.1333 45.9945 53.295 45.8168 53.5293 45.7072C53.7637 45.5975 54.0037 45.5872 54.2494 45.6762L58.4388 47.1941C58.6108 47.2564 58.7345 47.3754 58.8099 47.5509C58.8882 47.7183 58.8947 47.8921 58.8294 48.0723C58.7641 48.2525 58.6478 48.3817 58.4804 48.4601C58.3131 48.5384 58.1434 48.5464 57.9714 48.4841L54.3594 47.1754L53.6027 49.264L57.1286 50.5415C57.3006 50.6038 57.4243 50.7228 57.4997 50.8983C57.578 51.0657 57.5846 51.2395 57.5193 51.4197C57.454 51.5999 57.3377 51.7291 57.1703 51.8075C57.0029 51.8858 56.8332 51.8938 56.6612 51.8315L53.1353 50.554L52.3251 52.7899L55.9371 54.0987C56.1091 54.161 56.2343 54.2758 56.3126 54.4432C56.3909 54.6106 56.399 54.7803 56.3366 54.9523Z" fill="#475B6F"/>
</g>
<defs>
<filter id="filter0_i" x="65.5646" y="50.746" width="10.4563" height="13.9409" filterUnits="userSpaceOnUse" color-interpolation-filters="sRGB">
<feFlood flood-opacity="0" result="BackgroundImageFix"/>
<feBlend mode="normal" in="SourceGraphic" in2="BackgroundImageFix" result="shape"/>
<feColorMatrix in="SourceAlpha" type="matrix" values="0 0 0 0 0 0 0 0 0 0 0 0 0 0 0 0 0 0 127 0" result="hardAlpha"/>
<feOffset dy="3.4846"/>
<feGaussianBlur stdDeviation="1.7423"/>
<feComposite in2="hardAlpha" operator="arithmetic" k2="-1" k3="1"/>
<feColorMatrix type="matrix" values="0 0 0 0 0 0 0 0 0 0 0 0 0 0 0 0 0 0 0.24 0"/>
<feBlend mode="normal" in2="shape" result="effect1_innerShadow"/>
</filter>
<linearGradient id="paint0_linear" x1="73.0565" y1="69.102" x2="77.8471" y2="54.9991" gradientUnits="userSpaceOnUse">
<stop offset="0.159397" stop-color="#FACCA9"/>
<stop offset="0.801936" stop-color="#FFAE70"/>
</linearGradient>
<clipPath id="clip0">
<rect width="69.9503" height="69.9503" fill="white" transform="translate(93.5059 63.9878) rotate(154.917)"/>
</clipPath>
</defs>
</svg>
