<svg width="25" height="18" viewBox="0 0 25 18" fill="none" xmlns="http://www.w3.org/2000/svg">
<path fill-rule="evenodd" clip-rule="evenodd" d="M9.64209 0.587402C9.12 0.587402 8.59792 0.787534 8.19766 1.1878L1.01031 7.83566C0.20978 8.63619 0.20978 9.93269 1.01031 10.7332L8.19766 17.3898C8.59792 17.79 9.12 17.9902 9.64209 17.9902H22.9552C24.0864 17.9902 25 17.0765 25 15.9454V2.63223C25 1.50105 24.0864 0.587402 22.9552 0.587402H9.64209ZM18.3262 13.9008C18.6133 13.9008 18.857 13.8051 19.0571 13.6049C19.2572 13.4048 19.3617 13.1699 19.353 12.8914V5.66926C19.353 5.39081 19.2485 5.15588 19.0571 4.96445C18.8657 4.77302 18.6307 4.6773 18.3523 4.6773C18.0564 4.6773 17.8128 4.77302 17.6127 4.96445C17.4125 5.16458 17.3168 5.39081 17.3168 5.66926V8.27968H13.175V5.66926C13.175 5.39081 13.0793 5.15588 12.8878 4.96445C12.6877 4.77302 12.4615 4.6773 12.183 4.6773C11.9046 4.6773 11.6609 4.77302 11.4608 4.96445C11.2607 5.16458 11.165 5.39081 11.165 5.66926V12.9088C11.165 13.1873 11.2607 13.4222 11.4521 13.6136C11.6522 13.8051 11.8785 13.9008 12.1569 13.9008C12.4354 13.9008 12.679 13.8051 12.8791 13.6136C13.0793 13.4135 13.175 13.1873 13.175 12.9088V10.0548H17.3168V12.8914C17.3168 13.1699 17.4125 13.4048 17.6127 13.6049C17.8128 13.8051 18.0477 13.9008 18.3262 13.9008Z" fill="#F76A1D"/>
</svg>
