<svg width="52" height="37" viewBox="0 0 52 37" fill="none" xmlns="http://www.w3.org/2000/svg">
<path opacity="0.1" fill-rule="evenodd" clip-rule="evenodd" d="M19.5162 0C18.4126 0 17.3089 0.423066 16.4628 1.2692L1.2692 15.3223C-0.423066 17.0146 -0.423066 19.7553 1.2692 21.4476L16.4628 35.5191C17.3089 36.3653 18.4126 36.7883 19.5162 36.7883H47.6593C50.0505 36.7883 51.9819 34.8569 51.9819 32.4657V4.32263C51.9819 1.93139 50.0505 0 47.6593 0L19.5162 0ZM37.8735 28.1436C38.4805 28.1436 38.9956 27.9413 39.4186 27.5182C39.8417 27.0952 40.0624 26.5985 40.044 26.0099V10.7428C40.044 10.1541 39.8233 9.6575 39.4186 9.25283C39.014 8.84816 38.5173 8.64582 37.9287 8.64582C37.3033 8.64582 36.7883 8.84816 36.3652 9.25283C35.9421 9.67589 35.7398 10.1541 35.7398 10.7428V16.261H26.9842V10.7428C26.9842 10.1541 26.7818 9.6575 26.3772 9.25283C25.9541 8.84816 25.4759 8.64582 24.8872 8.64582C24.2986 8.64582 23.7836 8.84816 23.3605 9.25283C22.9375 9.67589 22.7351 10.1541 22.7351 10.7428V26.0467C22.7351 26.6353 22.9375 27.132 23.3421 27.5366C23.7652 27.9413 24.2434 28.1436 24.8321 28.1436C25.4207 28.1436 25.9357 27.9413 26.3588 27.5366C26.7818 27.1136 26.9842 26.6353 26.9842 26.0467V20.0134H35.7398V26.0099C35.7398 26.5985 35.9421 27.0952 36.3652 27.5182C36.7883 27.9413 37.2849 28.1436 37.8735 28.1436Z" fill="#F76A1D"/>
</svg>
